<svg width="18" height="16" viewBox="0 0 18 16" fill="none" xmlns="http://www.w3.org/2000/svg">
<g id="material-symbols:search">
<path id="Vector" d="M15.5143 14.6667L10.1143 10C9.68571 10.2963 9.19285 10.5309 8.6357 10.7037C8.07856 10.8766 7.48571 10.963 6.85713 10.963C5.29999 10.963 3.98228 10.497 2.90399 9.5652C1.82513 8.63285 1.28571 7.49384 1.28571 6.14816C1.28571 4.80248 1.82513 3.66347 2.90399 2.73112C3.98228 1.79927 5.29999 1.33334 6.85713 1.33334C8.41428 1.33334 9.73228 1.79927 10.8111 2.73112C11.8894 3.66347 12.4286 4.80248 12.4286 6.14816C12.4286 6.69137 12.3286 7.20371 12.1286 7.68519C11.9286 8.16668 11.6571 8.5926 11.3143 8.96297L16.7143 13.6296L15.5143 14.6667ZM6.85713 9.48149C7.92856 9.48149 8.83942 9.15754 9.5897 8.50964C10.3394 7.86124 10.7143 7.07408 10.7143 6.14816C10.7143 5.22223 10.3394 4.43507 9.5897 3.78668C8.83942 3.13878 7.92856 2.81482 6.85713 2.81482C5.78571 2.81482 4.87485 3.13878 4.12456 3.78668C3.37485 4.43507 2.99999 5.22223 2.99999 6.14816C2.99999 7.07408 3.37485 7.86124 4.12456 8.50964C4.87485 9.15754 5.78571 9.48149 6.85713 9.48149Z" fill="#F8F8F8"/>
</g>
</svg>
