<svg width="39" height="49" viewBox="0 0 39 49" fill="none" xmlns="http://www.w3.org/2000/svg">
<g id="&#208;&#187;&#208;&#190;&#208;&#179;&#208;&#190;">
<path id="Polygon 4" d="M19.9257 19.7803L15.2667 18.3943L8.81442 19.7865L3.97525 21.1787L0.749119 23.9631L18.4928 0.295756L17.1919 10.0411L19.9257 19.7803Z" fill="#8F20A1"/>
<path id="Polygon 8" d="M19.1363 27.7785L24.1178 28.8284L30.5229 26.9632L35.2748 25.2154L38.166 22.1897L23.51 47.2033L23.3902 37.3409L19.1363 27.7785Z" fill="#8F20A1"/>
<path id="Polygon 5" d="M32.8072 20.8831L24.7418 11.1378L21.8969 8.22174L21.8969 5.43735L20.5266 0.000207886L37.6463 20.8831L21.5158 26.4519L28.1984 15.3143L32.8072 20.8831Z" fill="#8F20A1"/>
<path id="Polygon 9" d="M6.36252 27.9492L15.2543 37.7208L18.3527 40.6349L18.5556 43.4785L20.3419 49.0004L1.45369 28.0576L17.4105 22.009L11.4435 33.5329L6.36252 27.9492Z" fill="#8F20A1"/>
</g>
</svg>
